# xmcd
#
# Track frame offsets:
#	183
#	11795
#	24630
#	36278
#	50753
#	64245
#	76475
#	98760
#	110285
#	123658
#	131225
#	153090
#	167293
#	181595
#	195193
#	208280
#
# Disc length: 2947 seconds
#
# Revision: 3
# Processed by: cddbd v1.4PL0 Copyright (c) Steve Scherf et al.
# Submitted via: MusicWizard 6.0.2
#
DISCID=d30b8110
DTITLE=Various Artist - The Very Best Of Blues - Disc 1 [CD 2/2)
DYEAR=1900
DGENRE=Blues
TTITLE0=Little Walter - My Babe
TTITLE1=Muddy Waters - I Just Want To Make Love To You
TTITLE2=Sonny Boy Williamson - Don´t Start Me Talking
TTITLE3=Otis Rush - So Many Roads, So Many Trains
TTITLE4=Chicago Blues All Stars - That Ain´t It
TTITLE5=Howlin´ Wolf - Spoonful
TTITLE6=Muddy Waters - Five Long Years
TTITLE7=John Lee Hooker - Boom Boom
TTITLE8=John Lee Hooker - Groundhog Blues
TTITLE9=Pete Haycock - Back Porch
TTITLE10=Gerogie Fame - I Almost Lost My Mind
TTITLE11=Charles Brown - Trouble Blues
TTITLE12=Phil Upchurch - I´m Going Down Slow
TTITLE13=Pete Haycock - Haunting
TTITLE14=Elmore James - Dust My Broom
TTITLE15=Muddy Waters - I´m Your Hoochie Coochie Man
EXTD=
EXTT0=
EXTT1=
EXTT2=
EXTT3=
EXTT4=
EXTT5=
EXTT6=
EXTT7=
EXTT8=
EXTT9=
EXTT10=
EXTT11=
EXTT12=
EXTT13=
EXTT14=
EXTT15=
PLAYORDER=
